<?xml version="1.0" standalone="no"?><!DOCTYPE svg PUBLIC "-//W3C//DTD SVG 1.1//EN" "http://www.w3.org/Graphics/SVG/1.1/DTD/svg11.dtd"><svg t="1661752772890" class="icon" viewBox="0 0 1044 1024" version="1.1" xmlns="http://www.w3.org/2000/svg" p-id="23543" xmlns:xlink="http://www.w3.org/1999/xlink" width="203.90625" height="200"><path d="M664.950603 626.942827a94.980255 94.980255 0 1 1 0 189.960511 94.980255 94.980255 0 0 1 0-189.960511z m0 56.988153a37.992102 37.992102 0 1 0 0 76.005102 37.992102 37.992102 0 0 0 0-76.005102z" fill="#999999" p-id="23544"></path><path d="M379.988939 664.934929m-56.988153 0a56.988153 56.988153 0 1 0 113.976306 0 56.988153 56.988153 0 1 0-113.976306 0Z" fill="#999999" p-id="23545"></path><path d="M246.995684 816.924235m-37.992102 0a37.992102 37.992102 0 1 0 75.984204 0 37.992102 37.992102 0 1 0-75.984204 0Z" fill="#999999" p-id="23546"></path><path d="M731.44723 0.010449a28.504525 28.504525 0 1 1 0 56.988153h-28.504525v322.786584L990.370303 722.633606a170.985357 170.985357 0 0 1-131.028867 280.844807H171.01148a170.985357 170.985357 0 0 1-131.028867-280.844807l282.997275-337.582188V56.998602h-28.483627a28.504525 28.504525 0 1 1 0-56.988153z m40.583423 550.927276H258.301365l-173.660269 207.201151a113.725533 113.725533 0 0 0 82.337119 186.679565l4.806481 0.104488h686.783523a113.725533 113.725533 0 0 0 89.83941-183.482209l-2.695809-3.322742z m-392.062612-145.134845l-73.894429 88.146692h418.184794l-78.303854-93.392027V56.998602H379.968041z" fill="" p-id="23547"></path></svg>